{
  "accessors": [
    {
      "bufferView": 2,
      "componentType": 5126,
      "count": 434,
      "max": [
        0.11248501390218735,
        0.31559649109840393,
        0.31559649109840393
      ],
      "min": [
        -0.11248501390218735,
        -0.31559649109840393,
        -0.31559649109840393
      ],
      "type": "VEC3"
    },
    {
      "bufferView": 2,
      "byteOffset": 5208,
      "componentType": 5126,
      "count": 434,
      "max": [
        1.0,
        1.0,
        1.0
      ],
      "min": [
        -1.0,
        -1.0,
        -1.0
      ],
      "type": "VEC3"
    },
    {
      "bufferView": 1,
      "componentType": 5126,
      "count": 434,
      "max": [
        0.9999675750732422,
        0.9939813613891602
      ],
      "min": [
        -3.24249267578125e-05,
        0.0022990405559539795
      ],
      "type": "VEC2"
    },
    {
      "bufferView": 0,
      "componentType": 5125,
      "count": 756,
      "type": "SCALAR"
    },
    {
      "bufferView": 2,
      "byteOffset": 10416,
      "componentType": 5126,
      "count": 434,
      "max": [
        0.11248508095741272,
        0.31559649109840393,
        0.3155965209007263
      ],
      "min": [
        -0.11248508095741272,
        -0.31559649109840393,
        -0.3155965209007263
      ],
      "type": "VEC3"
    },
    {
      "bufferView": 2,
      "byteOffset": 15624,
      "componentType": 5126,
      "count": 434,
      "max": [
        1.0,
        1.0,
        1.0
      ],
      "min": [
        -1.0,
        -1.0,
        -1.0
      ],
      "type": "VEC3"
    },
    {
      "bufferView": 1,
      "byteOffset": 3472,
      "componentType": 5126,
      "count": 434,
      "max": [
        1.0,
        0.9939813613891602
      ],
      "min": [
        0.0,
        0.0022990405559539795
      ],
      "type": "VEC2"
    },
    {
      "bufferView": 0,
      "byteOffset": 3024,
      "componentType": 5125,
      "count": 756,
      "type": "SCALAR"
    },
    {
      "bufferView": 2,
      "byteOffset": 20832,
      "componentType": 5126,
      "count": 807,
      "max": [
        0.8146361708641052,
        1.4165065288543701,
        1.8066107034683228
      ],
      "min": [
        -0.8146361708641052,
        0.8132280707359314,
        -0.9635961651802063
      ],
      "type": "VEC3"
    },
    {
      "bufferView": 2,
      "byteOffset": 30516,
      "componentType": 5126,
      "count": 807,
      "max": [
        1.0,
        0.9999915361404419,
        1.0
      ],
      "min": [
        -1.0,
        -0.9998854398727417,
        -0.9999910593032837
      ],
      "type": "VEC3"
    },
    {
      "bufferView": 1,
      "byteOffset": 6944,
      "componentType": 5126,
      "count": 807,
      "max": [
        0.8423444032669067,
        0.7774026393890381
      ],
      "min": [
        0.8341800570487976,
        0.7663148045539856
      ],
      "type": "VEC2"
    },
    {
      "bufferView": 0,
      "byteOffset": 6048,
      "componentType": 5125,
      "count": 2421,
      "type": "SCALAR"
    },
    {
      "bufferView": 2,
      "byteOffset": 40200,
      "componentType": 5126,
      "count": 3508,
      "max": [
        1.003840446472168,
        1.4226826429367065,
        2.259324073791504
      ],
      "min": [
        -1.003840446472168,
        0.16879773139953613,
        -2.2501747608184814
      ],
      "type": "VEC3"
    },
    {
      "bufferView": 2,
      "byteOffset": 82296,
      "componentType": 5126,
      "count": 3508,
      "max": [
        1.0,
        1.0,
        1.0
      ],
      "min": [
        -1.0,
        -1.0,
        -1.0
      ],
      "type": "VEC3"
    },
    {
      "bufferView": 1,
      "byteOffset": 13400,
      "componentType": 5126,
      "count": 3508,
      "max": [
        0.998918890953064,
        0.9974821209907532
      ],
      "min": [
        0.0031308457255363464,
        0.00674394890666008
      ],
      "type": "VEC2"
    },
    {
      "bufferView": 0,
      "byteOffset": 15732,
      "componentType": 5125,
      "count": 10638,
      "type": "SCALAR"
    },
    {
      "bufferView": 2,
      "byteOffset": 124392,
      "componentType": 5126,
      "count": 202,
      "max": [
        0.8099092245101929,
        1.33016836643219,
        1.7786343097686768
      ],
      "min": [
        -0.8099092245101929,
        0.9116958379745483,
        -0.9390804767608643
      ],
      "type": "VEC3"
    },
    {
      "bufferView": 2,
      "byteOffset": 126816,
      "componentType": 5126,
      "count": 202,
      "max": [
        0.9443539977073669,
        0.9550458788871765,
        0.46324580907821655
      ],
      "min": [
        -0.9443539977073669,
        0.3283250033855438,
        -0.5021954774856567
      ],
      "type": "VEC3"
    },
    {
      "bufferView": 1,
      "byteOffset": 41464,
      "componentType": 5126,
      "count": 202,
      "max": [
        0.9285019636154175,
        0.3998637795448303
      ],
      "min": [
        0.4461383819580078,
        0.021448194980621338
      ],
      "type": "VEC2"
    },
    {
      "bufferView": 0,
      "byteOffset": 58284,
      "componentType": 5125,
      "count": 720,
      "type": "SCALAR"
    },
    {
      "bufferView": 2,
      "byteOffset": 129240,
      "componentType": 5126,
      "count": 124,
      "max": [
        0.26566559076309204,
        0.23895463347434998,
        2.1927709579467773
      ],
      "min": [
        -0.26566559076309204,
        -0.23807960748672485,
        -2.2027435302734375
      ],
      "type": "VEC3"
    },
    {
      "bufferView": 2,
      "byteOffset": 130728,
      "componentType": 5126,
      "count": 124,
      "max": [
        0.9862035512924194,
        1.0,
        0.9961968064308167
      ],
      "min": [
        -0.9862035512924194,
        -1.0,
        -1.0
      ],
      "type": "VEC3"
    },
    {
      "bufferView": 1,
      "byteOffset": 43080,
      "componentType": 5126,
      "count": 124,
      "max": [
        0.9833961725234985,
        0.9864535331726074
      ],
      "min": [
        0.012328743934631348,
        0.7486706972122192
      ],
      "type": "VEC2"
    },
    {
      "bufferView": 0,
      "byteOffset": 61164,
      "componentType": 5125,
      "count": 312,
      "type": "SCALAR"
    },
    {
      "bufferView": 2,
      "byteOffset": 132216,
      "componentType": 5126,
      "count": 434,
      "max": [
        0.11248501390218735,
        0.31559649109840393,
        0.31559649109840393
      ],
      "min": [
        -0.11248501390218735,
        -0.31559649109840393,
        -0.31559649109840393
      ],
      "type": "VEC3"
    },
    {
      "bufferView": 2,
      "byteOffset": 137424,
      "componentType": 5126,
      "count": 434,
      "max": [
        1.0,
        1.0,
        1.0
      ],
      "min": [
        -1.0,
        -1.0,
        -1.0
      ],
      "type": "VEC3"
    },
    {
      "bufferView": 1,
      "byteOffset": 44072,
      "componentType": 5126,
      "count": 434,
      "max": [
        0.9999675750732422,
        0.9939813613891602
      ],
      "min": [
        -3.24249267578125e-05,
        0.0022990405559539795
      ],
      "type": "VEC2"
    },
    {
      "bufferView": 0,
      "byteOffset": 62412,
      "componentType": 5125,
      "count": 756,
      "type": "SCALAR"
    },
    {
      "bufferView": 2,
      "byteOffset": 142632,
      "componentType": 5126,
      "count": 434,
      "max": [
        0.11248508095741272,
        0.31559649109840393,
        0.3155965209007263
      ],
      "min": [
        -0.11248508095741272,
        -0.31559649109840393,
        -0.3155965209007263
      ],
      "type": "VEC3"
    },
    {
      "bufferView": 2,
      "byteOffset": 147840,
      "componentType": 5126,
      "count": 434,
      "max": [
        1.0,
        1.0,
        1.0
      ],
      "min": [
        -1.0,
        -1.0,
        -1.0
      ],
      "type": "VEC3"
    },
    {
      "bufferView": 1,
      "byteOffset": 47544,
      "componentType": 5126,
      "count": 434,
      "max": [
        1.0,
        0.9939813613891602
      ],
      "min": [
        0.0,
        0.0022990405559539795
      ],
      "type": "VEC2"
    },
    {
      "bufferView": 0,
      "byteOffset": 65436,
      "componentType": 5125,
      "count": 756,
      "type": "SCALAR"
    }
  ],
  "asset": {
    "extras": {
      "author": "mipa111 (https://sketchfab.com/mipa111)",
      "license": "CC-BY-4.0 (http://creativecommons.org/licenses/by/4.0/)",
      "source": "https://sketchfab.com/3d-models/exo90-de022ff489e34c768b193f60183fd7a9",
      "title": "EXO90"
    },
    "generator": "Sketchfab-11.45.0",
    "version": "2.0"
  },
  "bufferViews": [
    {
      "buffer": 0,
      "byteLength": 68460,
      "name": "floatBufferViews",
      "target": 34963
    },
    {
      "buffer": 0,
      "byteLength": 51016,
      "byteOffset": 68460,
      "byteStride": 8,
      "name": "floatBufferViews",
      "target": 34962
    },
    {
      "buffer": 0,
      "byteLength": 153048,
      "byteOffset": 119476,
      "byteStride": 12,
      "name": "floatBufferViews",
      "target": 34962
    }
  ],
  "buffers": [
    {
      "byteLength": 272524,
      "uri": "scene.bin"
    }
  ],
  "images": [
    {
      "uri": "textures/wheel_baseColor.png"
    },
    {
      "uri": "textures/car1_baseColor.png"
    },
    {
      "uri": "textures/plate_de_baseColor.png"
    }
  ],
  "materials": [
    {
      "name": "wheel",
      "pbrMetallicRoughness": {
        "baseColorTexture": {
          "index": 0
        },
        "metallicFactor": 0.0
      }
    },
    {
      "name": "car1",
      "pbrMetallicRoughness": {
        "baseColorTexture": {
          "index": 1
        },
        "metallicFactor": 0.0,
        "roughnessFactor": 0.0
      }
    },
    {
      "alphaMode": "BLEND",
      "name": "window",
      "pbrMetallicRoughness": {
        "baseColorFactor": [
          0.0,
          0.0,
          0.0,
          0.95
        ],
        "metallicFactor": 0.0,
        "roughnessFactor": 0.0
      }
    },
    {
      "name": "plate_de",
      "pbrMetallicRoughness": {
        "baseColorTexture": {
          "index": 2
        },
        "metallicFactor": 0.0,
        "roughnessFactor": 0.4
      }
    }
  ],
  "meshes": [
    {
      "name": "Object_0",
      "primitives": [
        {
          "attributes": {
            "NORMAL": 1,
            "POSITION": 0,
            "TEXCOORD_0": 2
          },
          "indices": 3,
          "material": 0,
          "mode": 4
        }
      ]
    },
    {
      "name": "Object_1",
      "primitives": [
        {
          "attributes": {
            "NORMAL": 5,
            "POSITION": 4,
            "TEXCOORD_0": 6
          },
          "indices": 7,
          "material": 0,
          "mode": 4
        }
      ]
    },
    {
      "name": "Object_2",
      "primitives": [
        {
          "attributes": {
            "NORMAL": 9,
            "POSITION": 8,
            "TEXCOORD_0": 10
          },
          "indices": 11,
          "material": 1,
          "mode": 4
        }
      ]
    },
    {
      "name": "Object_3",
      "primitives": [
        {
          "attributes": {
            "NORMAL": 13,
            "POSITION": 12,
            "TEXCOORD_0": 14
          },
          "indices": 15,
          "material": 1,
          "mode": 4
        }
      ]
    },
    {
      "name": "Object_4",
      "primitives": [
        {
          "attributes": {
            "NORMAL": 17,
            "POSITION": 16,
            "TEXCOORD_0": 18
          },
          "indices": 19,
          "material": 2,
          "mode": 4
        }
      ]
    },
    {
      "name": "Object_5",
      "primitives": [
        {
          "attributes": {
            "NORMAL": 21,
            "POSITION": 20,
            "TEXCOORD_0": 22
          },
          "indices": 23,
          "material": 3,
          "mode": 4
        }
      ]
    },
    {
      "name": "Object_6",
      "primitives": [
        {
          "attributes": {
            "NORMAL": 25,
            "POSITION": 24,
            "TEXCOORD_0": 26
          },
          "indices": 27,
          "material": 0,
          "mode": 4
        }
      ]
    },
    {
      "name": "Object_7",
      "primitives": [
        {
          "attributes": {
            "NORMAL": 29,
            "POSITION": 28,
            "TEXCOORD_0": 30
          },
          "indices": 31,
          "material": 0,
          "mode": 4
        }
      ]
    }
  ],
  "nodes": [
    {
      "children": [
        1
      ],
      "matrix": [
        1.0,
        0.0,
        0.0,
        0.0,
        0.0,
        2.220446049250313e-16,
        -1.0,
        0.0,
        0.0,
        1.0,
        2.220446049250313e-16,
        0.0,
        0.0,
        0.0,
        0.0,
        1.0
      ],
      "name": "Sketchfab_model"
    },
    {
      "children": [
        2
      ],
      "name": "root"
    },
    {
      "children": [
        3,
        5,
        7,
        9,
        11,
        13,
        15,
        17
      ],
      "matrix": [
        1.0,
        0.0,
        0.0,
        0.0,
        0.0,
        2.220446049250313e-16,
        1.0,
        0.0,
        0.0,
        -1.0,
        2.220446049250313e-16,
        0.0,
        0.0,
        0.0,
        0.0,
        1.0
      ],
      "name": "GLTF_SceneRootNode"
    },
    {
      "children": [
        4
      ],
      "matrix": [
        1.0,
        0.0,
        0.0,
        0.0,
        0.0,
        1.0,
        0.0,
        0.0,
        0.0,
        0.0,
        1.0,
        0.0,
        -0.75176602602005,
        0.3149789869785309,
        -1.5064899921417236,
        1.0
      ],
      "name": "fl_0"
    },
    {
      "mesh": 0,
      "name": "Object_4"
    },
    {
      "children": [
        6
      ],
      "matrix": [
        1.0,
        0.0,
        0.0,
        0.0,
        0.0,
        1.0,
        0.0,
        0.0,
        0.0,
        0.0,
        1.0,
        0.0,
        0.75176602602005,
        0.3149789869785309,
        -1.5064899921417236,
        1.0
      ],
      "name": "fr_1"
    },
    {
      "mesh": 1,
      "name": "Object_6"
    },
    {
      "children": [
        8
      ],
      "name": "int_2"
    },
    {
      "mesh": 2,
      "name": "Object_8"
    },
    {
      "children": [
        10
      ],
      "name": "ext_3"
    },
    {
      "mesh": 3,
      "name": "Object_10"
    },
    {
      "children": [
        12
      ],
      "name": "ext_glass_4"
    },
    {
      "mesh": 4,
      "name": "Object_12"
    },
    {
      "children": [
        14
      ],
      "matrix": [
        1.0,
        0.0,
        0.0,
        0.0,
        0.0,
        1.0,
        0.0,
        0.0,
        0.0,
        0.0,
        1.0,
        0.0,
        0.0,
        0.614109992980957,
        -0.053559303283691406,
        1.0
      ],
      "name": "plates_5"
    },
    {
      "mesh": 5,
      "name": "Object_14"
    },
    {
      "children": [
        16
      ],
      "matrix": [
        1.0,
        0.0,
        0.0,
        0.0,
        0.0,
        1.0,
        0.0,
        0.0,
        0.0,
        0.0,
        1.0,
        0.0,
        -0.75176602602005,
        0.3149789869785309,
        1.254480004310608,
        1.0
      ],
      "name": "rl_6"
    },
    {
      "mesh": 6,
      "name": "Object_16"
    },
    {
      "children": [
        18
      ],
      "matrix": [
        1.0,
        0.0,
        0.0,
        0.0,
        0.0,
        1.0,
        0.0,
        0.0,
        0.0,
        0.0,
        1.0,
        0.0,
        0.75176602602005,
        0.3149789869785309,
        1.254480004310608,
        1.0
      ],
      "name": "rr_7"
    },
    {
      "mesh": 7,
      "name": "Object_18"
    }
  ],
  "samplers": [
    {
      "magFilter": 9729,
      "minFilter": 9987,
      "wrapS": 10497,
      "wrapT": 10497
    }
  ],
  "scene": 0,
  "scenes": [
    {
      "name": "Sketchfab_Scene",
      "nodes": [
        0
      ]
    }
  ],
  "textures": [
    {
      "sampler": 0,
      "source": 0
    },
    {
      "sampler": 0,
      "source": 1
    },
    {
      "sampler": 0,
      "source": 2
    }
  ]
}
